<svg width="20" height="20" viewBox="0 0 20 20" fill="none" xmlns="http://www.w3.org/2000/svg">
<path d="M3.93333 17.5833H5.66667C5.97361 17.5833 6.23108 17.6873 6.43908 17.8953C6.64708 18.1033 6.75072 18.3604 6.75 18.6667C6.74928 18.9729 6.64528 19.2304 6.438 19.4391C6.23072 19.6478 5.97361 19.7514 5.66667 19.75H1.33333C1.02639 19.75 0.769278 19.646 0.562 19.438C0.354722 19.23 0.250722 18.9729 0.25 18.6667V14.3333C0.25 14.0264 0.354 13.7693 0.562 13.562C0.77 13.3547 1.02711 13.2507 1.33333 13.25C1.63956 13.2493 1.89703 13.3533 2.10575 13.562C2.31447 13.7707 2.41811 14.0278 2.41667 14.3333V16.0667L5.01667 13.4667C5.21528 13.2681 5.46806 13.1688 5.775 13.1688C6.08194 13.1688 6.33472 13.2681 6.53333 13.4667C6.73195 13.6653 6.83125 13.9181 6.83125 14.225C6.83125 14.5319 6.73195 14.7847 6.53333 14.9833L3.93333 17.5833ZM16.0667 17.5833L13.4667 14.9833C13.2681 14.7847 13.1688 14.5319 13.1688 14.225C13.1688 13.9181 13.2681 13.6653 13.4667 13.4667C13.6653 13.2681 13.9181 13.1688 14.225 13.1688C14.5319 13.1688 14.7847 13.2681 14.9833 13.4667L17.5833 16.0667V14.3333C17.5833 14.0264 17.6873 13.7693 17.8953 13.562C18.1033 13.3547 18.3604 13.2507 18.6667 13.25C18.9729 13.2493 19.2304 13.3533 19.4391 13.562C19.6478 13.7707 19.7514 14.0278 19.75 14.3333V18.6667C19.75 18.9736 19.646 19.2311 19.438 19.4391C19.23 19.6471 18.9729 19.7507 18.6667 19.75H14.3333C14.0264 19.75 13.7693 19.646 13.562 19.438C13.3547 19.23 13.2507 18.9729 13.25 18.6667C13.2493 18.3604 13.3533 18.1033 13.562 17.8953C13.7707 17.6873 14.0278 17.5833 14.3333 17.5833H16.0667ZM2.41667 3.93333V5.66667C2.41667 5.97361 2.31267 6.23108 2.10467 6.43908C1.89667 6.64708 1.63956 6.75072 1.33333 6.75C1.02711 6.74928 0.77 6.64528 0.562 6.438C0.354 6.23072 0.25 5.97361 0.25 5.66667V1.33333C0.25 1.02639 0.354 0.769278 0.562 0.562C0.77 0.354722 1.02711 0.250722 1.33333 0.25H5.66667C5.97361 0.25 6.23108 0.354 6.43908 0.562C6.64708 0.77 6.75072 1.02711 6.75 1.33333C6.74928 1.63956 6.64528 1.89703 6.438 2.10575C6.23072 2.31447 5.97361 2.41811 5.66667 2.41667H3.93333L6.53333 5.01667C6.73195 5.21528 6.83125 5.46806 6.83125 5.775C6.83125 6.08194 6.73195 6.33472 6.53333 6.53333C6.33472 6.73195 6.08194 6.83125 5.775 6.83125C5.46806 6.83125 5.21528 6.73195 5.01667 6.53333L2.41667 3.93333ZM17.5833 3.93333L14.9833 6.53333C14.7847 6.73195 14.5319 6.83125 14.225 6.83125C13.9181 6.83125 13.6653 6.73195 13.4667 6.53333C13.2681 6.33472 13.1688 6.08194 13.1688 5.775C13.1688 5.46806 13.2681 5.21528 13.4667 5.01667L16.0667 2.41667H14.3333C14.0264 2.41667 13.7693 2.31303 13.562 2.10575C13.3547 1.89847 13.2507 1.641 13.25 1.33333C13.2493 1.02567 13.3533 0.768556 13.562 0.562C13.7707 0.355445 14.0278 0.251444 14.3333 0.25H18.6667C18.9736 0.25 19.2311 0.354 19.4391 0.562C19.6471 0.77 19.7507 1.02711 19.75 1.33333V5.66667C19.75 5.97361 19.646 6.23108 19.438 6.43908C19.23 6.64708 18.9729 6.75072 18.6667 6.75C18.3604 6.74928 18.1033 6.64528 17.8953 6.438C17.6873 6.23072 17.5833 5.97361 17.5833 5.66667V3.93333Z" fill="#475467"/>
</svg>
